<svg width="643" height="215" viewBox="0 0 643 215" fill="none" xmlns="http://www.w3.org/2000/svg">
<g clip-path="url(#clip0_7874_7)">
<path d="M306.113 138.786V163H214.731C215.721 153.846 218.69 145.188 223.638 137.023C228.586 128.798 238.358 117.912 252.954 104.367C264.705 93.4199 271.911 85.998 274.57 82.1016C278.158 76.7207 279.951 71.4017 279.951 66.1445C279.951 60.3307 278.374 55.8776 275.22 52.7852C272.127 49.6309 267.829 48.0537 262.324 48.0537C256.882 48.0537 252.552 49.6927 249.336 52.9707C246.12 56.2487 244.264 61.6914 243.77 69.2988L217.793 66.7012C219.339 52.3522 224.194 42.0544 232.358 35.8076C240.522 29.5609 250.728 26.4375 262.974 26.4375C276.395 26.4375 286.94 30.0557 294.609 37.292C302.279 44.5283 306.113 53.5273 306.113 64.2891C306.113 70.4121 305 76.2568 302.773 81.8232C300.609 87.3278 297.145 93.1107 292.383 99.1719C289.229 103.192 283.538 108.975 275.312 116.521C267.087 124.066 261.86 129.076 259.634 131.55C257.469 134.024 255.706 136.436 254.346 138.786H306.113ZM412.153 60.2998L386.919 63.083C386.3 57.8877 384.692 54.0531 382.095 51.5791C379.497 49.1051 376.126 47.8682 371.982 47.8682C366.478 47.8682 361.808 50.3421 357.974 55.29C354.201 60.238 351.82 70.5358 350.83 86.1836C357.324 78.5143 365.396 74.6797 375.044 74.6797C385.929 74.6797 395.238 78.8236 402.969 87.1113C410.762 95.3991 414.658 106.099 414.658 119.211C414.658 133.127 410.576 144.291 402.412 152.702C394.248 161.114 383.765 165.319 370.962 165.319C357.231 165.319 345.944 160 337.1 149.362C328.255 138.662 323.833 121.159 323.833 96.8525C323.833 71.9274 328.441 53.9603 337.656 42.9512C346.872 31.9421 358.84 26.4375 373.56 26.4375C383.888 26.4375 392.424 29.3444 399.165 35.1582C405.968 40.9102 410.298 49.2907 412.153 60.2998ZM353.057 117.17C353.057 125.643 355.005 132.199 358.901 136.838C362.798 141.415 367.251 143.703 372.261 143.703C377.085 143.703 381.105 141.817 384.321 138.044C387.537 134.271 389.146 128.086 389.146 119.489C389.146 110.645 387.414 104.182 383.95 100.1C380.487 95.9557 376.157 93.8838 370.962 93.8838C365.952 93.8838 361.715 95.863 358.252 99.8213C354.788 103.718 353.057 109.501 353.057 117.17Z" fill="url(#paint0_linear_7874_7)"/>
<mask id="path-2-outside-1_7874_7" maskUnits="userSpaceOnUse" x="39" y="63" width="559" height="69" fill="black">
<rect fill="white" x="39" y="63" width="559" height="69"/>
<path d="M40.5918 129V64.5762H53.5996V89.9326H79.0879V64.5762H92.0957V129H79.0879V100.831H53.5996V129H40.5918ZM114.728 96.5684L103.521 94.5469C104.781 90.0352 106.949 86.6953 110.025 84.5273C113.102 82.3594 117.672 81.2754 123.736 81.2754C129.244 81.2754 133.346 81.9346 136.041 83.2529C138.736 84.542 140.626 86.1973 141.71 88.2188C142.823 90.2109 143.38 93.8877 143.38 99.249L143.248 113.663C143.248 117.765 143.438 120.797 143.819 122.76C144.229 124.693 144.977 126.773 146.061 129H133.844C133.521 128.18 133.126 126.964 132.657 125.353C132.452 124.62 132.306 124.137 132.218 123.902C130.108 125.953 127.853 127.491 125.45 128.517C123.048 129.542 120.484 130.055 117.76 130.055C112.955 130.055 109.161 128.751 106.378 126.144C103.624 123.536 102.247 120.24 102.247 116.256C102.247 113.619 102.877 111.275 104.137 109.225C105.396 107.145 107.154 105.562 109.41 104.479C111.695 103.365 114.977 102.398 119.254 101.578C125.025 100.494 129.024 99.4834 131.251 98.5459V97.3154C131.251 94.9424 130.665 93.2578 129.493 92.2617C128.321 91.2363 126.109 90.7236 122.857 90.7236C120.66 90.7236 118.946 91.1631 117.716 92.042C116.485 92.8916 115.489 94.4004 114.728 96.5684ZM131.251 106.588C129.669 107.115 127.164 107.745 123.736 108.478C120.309 109.21 118.067 109.928 117.013 110.631C115.401 111.773 114.596 113.224 114.596 114.981C114.596 116.71 115.24 118.204 116.529 119.464C117.818 120.724 119.459 121.354 121.451 121.354C123.678 121.354 125.802 120.621 127.823 119.156C129.317 118.043 130.299 116.681 130.768 115.069C131.09 114.015 131.251 112.008 131.251 109.049V106.588ZM196.29 96.1289L184.117 98.3262C183.707 95.8945 182.77 94.0635 181.305 92.833C179.869 91.6025 177.994 90.9873 175.68 90.9873C172.604 90.9873 170.143 92.0566 168.297 94.1953C166.48 96.3047 165.572 99.8496 165.572 104.83C165.572 110.367 166.495 114.278 168.341 116.563C170.216 118.849 172.721 119.991 175.855 119.991C178.199 119.991 180.118 119.332 181.612 118.014C183.106 116.666 184.161 114.366 184.776 111.114L196.905 113.18C195.646 118.746 193.229 122.95 189.654 125.792C186.08 128.634 181.29 130.055 175.284 130.055C168.458 130.055 163.009 127.901 158.937 123.595C154.894 119.288 152.872 113.326 152.872 105.709C152.872 98.0039 154.908 92.0127 158.98 87.7354C163.053 83.4287 168.561 81.2754 175.504 81.2754C181.188 81.2754 185.699 82.5059 189.039 84.9668C192.408 87.3984 194.825 91.1191 196.29 96.1289ZM205.255 129V64.5762H217.604V98.7656L232.062 82.3301H247.267L231.314 99.3809L248.409 129H235.094L223.36 108.038L217.604 114.059V129H205.255ZM249.332 129L271.349 95.3818L251.397 64.5762H266.603L279.522 85.2744L292.179 64.5762H307.252L287.213 95.8652L309.229 129H293.541L279.259 106.72L264.933 129H249.332ZM342.848 114.146L355.152 116.212C353.57 120.724 351.065 124.166 347.638 126.539C344.239 128.883 339.977 130.055 334.85 130.055C326.734 130.055 320.729 127.403 316.832 122.101C313.756 117.853 312.218 112.491 312.218 106.017C312.218 98.2822 314.239 92.2324 318.282 87.8672C322.325 83.4727 327.438 81.2754 333.619 81.2754C340.562 81.2754 346.041 83.5752 350.055 88.1748C354.068 92.7451 355.987 99.7617 355.812 109.225H324.874C324.962 112.887 325.958 115.743 327.862 117.794C329.767 119.815 332.14 120.826 334.981 120.826C336.915 120.826 338.541 120.299 339.859 119.244C341.178 118.189 342.174 116.49 342.848 114.146ZM343.551 101.666C343.463 98.0918 342.54 95.3818 340.782 93.5361C339.024 91.6611 336.886 90.7236 334.366 90.7236C331.671 90.7236 329.444 91.7051 327.687 93.668C325.929 95.6309 325.064 98.2969 325.094 101.666H343.551ZM365.919 129V64.5762H378.268V129H365.919ZM417.994 114.146L430.299 116.212C428.717 120.724 426.212 124.166 422.784 126.539C419.386 128.883 415.123 130.055 409.996 130.055C401.881 130.055 395.875 127.403 391.979 122.101C388.902 117.853 387.364 112.491 387.364 106.017C387.364 98.2822 389.386 92.2324 393.429 87.8672C397.472 83.4727 402.584 81.2754 408.766 81.2754C415.709 81.2754 421.188 83.5752 425.201 88.1748C429.215 92.7451 431.134 99.7617 430.958 109.225H400.021C400.108 112.887 401.104 115.743 403.009 117.794C404.913 119.815 407.286 120.826 410.128 120.826C412.062 120.826 413.688 120.299 415.006 119.244C416.324 118.189 417.32 116.49 417.994 114.146ZM418.697 101.666C418.609 98.0918 417.687 95.3818 415.929 93.5361C414.171 91.6611 412.032 90.7236 409.513 90.7236C406.817 90.7236 404.591 91.7051 402.833 93.668C401.075 95.6309 400.211 98.2969 400.24 101.666H418.697ZM452.887 129H440.538V82.3301H452.008V88.9658C453.971 85.8311 455.729 83.7656 457.281 82.7695C458.863 81.7734 460.65 81.2754 462.643 81.2754C465.455 81.2754 468.165 82.0518 470.772 83.6045L466.949 94.3711C464.869 93.0234 462.936 92.3496 461.148 92.3496C459.42 92.3496 457.955 92.833 456.754 93.7998C455.553 94.7373 454.601 96.4512 453.897 98.9414C453.224 101.432 452.887 106.646 452.887 114.586V129ZM485.362 96.5684L474.156 94.5469C475.416 90.0352 477.584 86.6953 480.66 84.5273C483.736 82.3594 488.307 81.2754 494.371 81.2754C499.879 81.2754 503.98 81.9346 506.676 83.2529C509.371 84.542 511.261 86.1973 512.345 88.2188C513.458 90.2109 514.015 93.8877 514.015 99.249L513.883 113.663C513.883 117.765 514.073 120.797 514.454 122.76C514.864 124.693 515.611 126.773 516.695 129H504.479C504.156 128.18 503.761 126.964 503.292 125.353C503.087 124.62 502.94 124.137 502.853 123.902C500.743 125.953 498.487 127.491 496.085 128.517C493.683 129.542 491.119 130.055 488.395 130.055C483.59 130.055 479.796 128.751 477.013 126.144C474.259 123.536 472.882 120.24 472.882 116.256C472.882 113.619 473.512 111.275 474.771 109.225C476.031 107.145 477.789 105.562 480.045 104.479C482.33 103.365 485.611 102.398 489.889 101.578C495.66 100.494 499.659 99.4834 501.886 98.5459V97.3154C501.886 94.9424 501.3 93.2578 500.128 92.2617C498.956 91.2363 496.744 90.7236 493.492 90.7236C491.295 90.7236 489.581 91.1631 488.351 92.042C487.12 92.8916 486.124 94.4004 485.362 96.5684ZM501.886 106.588C500.304 107.115 497.799 107.745 494.371 108.478C490.943 109.21 488.702 109.928 487.647 110.631C486.036 111.773 485.23 113.224 485.23 114.981C485.23 116.71 485.875 118.204 487.164 119.464C488.453 120.724 490.094 121.354 492.086 121.354C494.312 121.354 496.437 120.621 498.458 119.156C499.952 118.043 500.934 116.681 501.402 115.069C501.725 114.015 501.886 112.008 501.886 109.049V106.588ZM547.633 82.3301V92.1738H539.195V110.982C539.195 114.791 539.269 117.018 539.415 117.662C539.591 118.277 539.957 118.79 540.514 119.2C541.1 119.61 541.803 119.815 542.623 119.815C543.766 119.815 545.421 119.42 547.589 118.629L548.644 128.209C545.772 129.439 542.521 130.055 538.888 130.055C536.661 130.055 534.654 129.688 532.867 128.956C531.08 128.194 529.762 127.228 528.912 126.056C528.092 124.854 527.521 123.243 527.198 121.222C526.935 119.786 526.803 116.886 526.803 112.521V92.1738H521.134V82.3301H526.803V73.0576L539.195 65.8506V82.3301H547.633ZM583.229 114.146L595.533 116.212C593.951 120.724 591.446 124.166 588.019 126.539C584.62 128.883 580.357 130.055 575.23 130.055C567.115 130.055 561.109 127.403 557.213 122.101C554.137 117.853 552.599 112.491 552.599 106.017C552.599 98.2822 554.62 92.2324 558.663 87.8672C562.706 83.4727 567.818 81.2754 574 81.2754C580.943 81.2754 586.422 83.5752 590.436 88.1748C594.449 92.7451 596.368 99.7617 596.192 109.225H565.255C565.343 112.887 566.339 115.743 568.243 117.794C570.147 119.815 572.521 120.826 575.362 120.826C577.296 120.826 578.922 120.299 580.24 119.244C581.559 118.189 582.555 116.49 583.229 114.146ZM583.932 101.666C583.844 98.0918 582.921 95.3818 581.163 93.5361C579.405 91.6611 577.267 90.7236 574.747 90.7236C572.052 90.7236 569.825 91.7051 568.067 93.668C566.31 95.6309 565.445 98.2969 565.475 101.666H583.932Z"/>
</mask>
<path d="M40.5918 129V64.5762H53.5996V89.9326H79.0879V64.5762H92.0957V129H79.0879V100.831H53.5996V129H40.5918ZM114.728 96.5684L103.521 94.5469C104.781 90.0352 106.949 86.6953 110.025 84.5273C113.102 82.3594 117.672 81.2754 123.736 81.2754C129.244 81.2754 133.346 81.9346 136.041 83.2529C138.736 84.542 140.626 86.1973 141.71 88.2188C142.823 90.2109 143.38 93.8877 143.38 99.249L143.248 113.663C143.248 117.765 143.438 120.797 143.819 122.76C144.229 124.693 144.977 126.773 146.061 129H133.844C133.521 128.18 133.126 126.964 132.657 125.353C132.452 124.62 132.306 124.137 132.218 123.902C130.108 125.953 127.853 127.491 125.45 128.517C123.048 129.542 120.484 130.055 117.76 130.055C112.955 130.055 109.161 128.751 106.378 126.144C103.624 123.536 102.247 120.24 102.247 116.256C102.247 113.619 102.877 111.275 104.137 109.225C105.396 107.145 107.154 105.562 109.41 104.479C111.695 103.365 114.977 102.398 119.254 101.578C125.025 100.494 129.024 99.4834 131.251 98.5459V97.3154C131.251 94.9424 130.665 93.2578 129.493 92.2617C128.321 91.2363 126.109 90.7236 122.857 90.7236C120.66 90.7236 118.946 91.1631 117.716 92.042C116.485 92.8916 115.489 94.4004 114.728 96.5684ZM131.251 106.588C129.669 107.115 127.164 107.745 123.736 108.478C120.309 109.21 118.067 109.928 117.013 110.631C115.401 111.773 114.596 113.224 114.596 114.981C114.596 116.71 115.24 118.204 116.529 119.464C117.818 120.724 119.459 121.354 121.451 121.354C123.678 121.354 125.802 120.621 127.823 119.156C129.317 118.043 130.299 116.681 130.768 115.069C131.09 114.015 131.251 112.008 131.251 109.049V106.588ZM196.29 96.1289L184.117 98.3262C183.707 95.8945 182.77 94.0635 181.305 92.833C179.869 91.6025 177.994 90.9873 175.68 90.9873C172.604 90.9873 170.143 92.0566 168.297 94.1953C166.48 96.3047 165.572 99.8496 165.572 104.83C165.572 110.367 166.495 114.278 168.341 116.563C170.216 118.849 172.721 119.991 175.855 119.991C178.199 119.991 180.118 119.332 181.612 118.014C183.106 116.666 184.161 114.366 184.776 111.114L196.905 113.18C195.646 118.746 193.229 122.95 189.654 125.792C186.08 128.634 181.29 130.055 175.284 130.055C168.458 130.055 163.009 127.901 158.937 123.595C154.894 119.288 152.872 113.326 152.872 105.709C152.872 98.0039 154.908 92.0127 158.98 87.7354C163.053 83.4287 168.561 81.2754 175.504 81.2754C181.188 81.2754 185.699 82.5059 189.039 84.9668C192.408 87.3984 194.825 91.1191 196.29 96.1289ZM205.255 129V64.5762H217.604V98.7656L232.062 82.3301H247.267L231.314 99.3809L248.409 129H235.094L223.36 108.038L217.604 114.059V129H205.255ZM249.332 129L271.349 95.3818L251.397 64.5762H266.603L279.522 85.2744L292.179 64.5762H307.252L287.213 95.8652L309.229 129H293.541L279.259 106.72L264.933 129H249.332ZM342.848 114.146L355.152 116.212C353.57 120.724 351.065 124.166 347.638 126.539C344.239 128.883 339.977 130.055 334.85 130.055C326.734 130.055 320.729 127.403 316.832 122.101C313.756 117.853 312.218 112.491 312.218 106.017C312.218 98.2822 314.239 92.2324 318.282 87.8672C322.325 83.4727 327.438 81.2754 333.619 81.2754C340.562 81.2754 346.041 83.5752 350.055 88.1748C354.068 92.7451 355.987 99.7617 355.812 109.225H324.874C324.962 112.887 325.958 115.743 327.862 117.794C329.767 119.815 332.14 120.826 334.981 120.826C336.915 120.826 338.541 120.299 339.859 119.244C341.178 118.189 342.174 116.49 342.848 114.146ZM343.551 101.666C343.463 98.0918 342.54 95.3818 340.782 93.5361C339.024 91.6611 336.886 90.7236 334.366 90.7236C331.671 90.7236 329.444 91.7051 327.687 93.668C325.929 95.6309 325.064 98.2969 325.094 101.666H343.551ZM365.919 129V64.5762H378.268V129H365.919ZM417.994 114.146L430.299 116.212C428.717 120.724 426.212 124.166 422.784 126.539C419.386 128.883 415.123 130.055 409.996 130.055C401.881 130.055 395.875 127.403 391.979 122.101C388.902 117.853 387.364 112.491 387.364 106.017C387.364 98.2822 389.386 92.2324 393.429 87.8672C397.472 83.4727 402.584 81.2754 408.766 81.2754C415.709 81.2754 421.188 83.5752 425.201 88.1748C429.215 92.7451 431.134 99.7617 430.958 109.225H400.021C400.108 112.887 401.104 115.743 403.009 117.794C404.913 119.815 407.286 120.826 410.128 120.826C412.062 120.826 413.688 120.299 415.006 119.244C416.324 118.189 417.32 116.49 417.994 114.146ZM418.697 101.666C418.609 98.0918 417.687 95.3818 415.929 93.5361C414.171 91.6611 412.032 90.7236 409.513 90.7236C406.817 90.7236 404.591 91.7051 402.833 93.668C401.075 95.6309 400.211 98.2969 400.24 101.666H418.697ZM452.887 129H440.538V82.3301H452.008V88.9658C453.971 85.8311 455.729 83.7656 457.281 82.7695C458.863 81.7734 460.65 81.2754 462.643 81.2754C465.455 81.2754 468.165 82.0518 470.772 83.6045L466.949 94.3711C464.869 93.0234 462.936 92.3496 461.148 92.3496C459.42 92.3496 457.955 92.833 456.754 93.7998C455.553 94.7373 454.601 96.4512 453.897 98.9414C453.224 101.432 452.887 106.646 452.887 114.586V129ZM485.362 96.5684L474.156 94.5469C475.416 90.0352 477.584 86.6953 480.66 84.5273C483.736 82.3594 488.307 81.2754 494.371 81.2754C499.879 81.2754 503.98 81.9346 506.676 83.2529C509.371 84.542 511.261 86.1973 512.345 88.2188C513.458 90.2109 514.015 93.8877 514.015 99.249L513.883 113.663C513.883 117.765 514.073 120.797 514.454 122.76C514.864 124.693 515.611 126.773 516.695 129H504.479C504.156 128.18 503.761 126.964 503.292 125.353C503.087 124.62 502.94 124.137 502.853 123.902C500.743 125.953 498.487 127.491 496.085 128.517C493.683 129.542 491.119 130.055 488.395 130.055C483.59 130.055 479.796 128.751 477.013 126.144C474.259 123.536 472.882 120.24 472.882 116.256C472.882 113.619 473.512 111.275 474.771 109.225C476.031 107.145 477.789 105.562 480.045 104.479C482.33 103.365 485.611 102.398 489.889 101.578C495.66 100.494 499.659 99.4834 501.886 98.5459V97.3154C501.886 94.9424 501.3 93.2578 500.128 92.2617C498.956 91.2363 496.744 90.7236 493.492 90.7236C491.295 90.7236 489.581 91.1631 488.351 92.042C487.12 92.8916 486.124 94.4004 485.362 96.5684ZM501.886 106.588C500.304 107.115 497.799 107.745 494.371 108.478C490.943 109.21 488.702 109.928 487.647 110.631C486.036 111.773 485.23 113.224 485.23 114.981C485.23 116.71 485.875 118.204 487.164 119.464C488.453 120.724 490.094 121.354 492.086 121.354C494.312 121.354 496.437 120.621 498.458 119.156C499.952 118.043 500.934 116.681 501.402 115.069C501.725 114.015 501.886 112.008 501.886 109.049V106.588ZM547.633 82.3301V92.1738H539.195V110.982C539.195 114.791 539.269 117.018 539.415 117.662C539.591 118.277 539.957 118.79 540.514 119.2C541.1 119.61 541.803 119.815 542.623 119.815C543.766 119.815 545.421 119.42 547.589 118.629L548.644 128.209C545.772 129.439 542.521 130.055 538.888 130.055C536.661 130.055 534.654 129.688 532.867 128.956C531.08 128.194 529.762 127.228 528.912 126.056C528.092 124.854 527.521 123.243 527.198 121.222C526.935 119.786 526.803 116.886 526.803 112.521V92.1738H521.134V82.3301H526.803V73.0576L539.195 65.8506V82.3301H547.633ZM583.229 114.146L595.533 116.212C593.951 120.724 591.446 124.166 588.019 126.539C584.62 128.883 580.357 130.055 575.23 130.055C567.115 130.055 561.109 127.403 557.213 122.101C554.137 117.853 552.599 112.491 552.599 106.017C552.599 98.2822 554.62 92.2324 558.663 87.8672C562.706 83.4727 567.818 81.2754 574 81.2754C580.943 81.2754 586.422 83.5752 590.436 88.1748C594.449 92.7451 596.368 99.7617 596.192 109.225H565.255C565.343 112.887 566.339 115.743 568.243 117.794C570.147 119.815 572.521 120.826 575.362 120.826C577.296 120.826 578.922 120.299 580.24 119.244C581.559 118.189 582.555 116.49 583.229 114.146ZM583.932 101.666C583.844 98.0918 582.921 95.3818 581.163 93.5361C579.405 91.6611 577.267 90.7236 574.747 90.7236C572.052 90.7236 569.825 91.7051 568.067 93.668C566.31 95.6309 565.445 98.2969 565.475 101.666H583.932Z" fill="white" fill-opacity="0.88"/>
<path d="M40.5918 129H39.5918V130H40.5918V129ZM40.5918 64.5762V63.5762H39.5918V64.5762H40.5918ZM53.5996 64.5762H54.5996V63.5762H53.5996V64.5762ZM53.5996 89.9326H52.5996V90.9326H53.5996V89.9326ZM79.0879 89.9326V90.9326H80.0879V89.9326H79.0879ZM79.0879 64.5762V63.5762H78.0879V64.5762H79.0879ZM92.0957 64.5762H93.0957V63.5762H92.0957V64.5762ZM92.0957 129V130H93.0957V129H92.0957ZM79.0879 129H78.0879V130H79.0879V129ZM79.0879 100.831H80.0879V99.8311H79.0879V100.831ZM53.5996 100.831V99.8311H52.5996V100.831H53.5996ZM53.5996 129V130H54.5996V129H53.5996ZM40.5918 129H41.5918V64.5762H40.5918H39.5918V129H40.5918ZM40.5918 64.5762V65.5762H53.5996V64.5762V63.5762H40.5918V64.5762ZM53.5996 64.5762H52.5996V89.9326H53.5996H54.5996V64.5762H53.5996ZM53.5996 89.9326V90.9326H79.0879V89.9326V88.9326H53.5996V89.9326ZM79.0879 89.9326H80.0879V64.5762H79.0879H78.0879V89.9326H79.0879ZM79.0879 64.5762V65.5762H92.0957V64.5762V63.5762H79.0879V64.5762ZM92.0957 64.5762H91.0957V129H92.0957H93.0957V64.5762H92.0957ZM92.0957 129V128H79.0879V129V130H92.0957V129ZM79.0879 129H80.0879V100.831H79.0879H78.0879V129H79.0879ZM79.0879 100.831V99.8311H53.5996V100.831V101.831H79.0879V100.831ZM53.5996 100.831H52.5996V129H53.5996H54.5996V100.831H53.5996ZM53.5996 129V128H40.5918V129V130H53.5996V129ZM114.728 96.5684L114.55 97.5525L115.389 97.7037L115.671 96.8998L114.728 96.5684ZM103.521 94.5469L102.558 94.2779L102.263 95.336L103.344 95.531L103.521 94.5469ZM136.041 83.2529L135.602 84.1513L135.61 84.1551L136.041 83.2529ZM141.71 88.2188L140.829 88.6913L140.833 88.699L140.837 88.7066L141.71 88.2188ZM143.38 99.249L144.38 99.2582V99.249H143.38ZM143.248 113.663L142.248 113.654V113.663H143.248ZM143.819 122.76L142.838 122.95L142.839 122.959L142.841 122.967L143.819 122.76ZM146.061 129V130H147.66L146.96 128.562L146.061 129ZM133.844 129L132.913 129.366L133.162 130H133.844V129ZM132.657 125.353L131.694 125.622L131.697 125.632L132.657 125.353ZM132.218 123.902L133.154 123.551L132.617 122.119L131.521 123.185L132.218 123.902ZM125.45 128.517L125.058 127.597L125.45 128.517ZM106.378 126.144L105.69 126.87L105.694 126.873L106.378 126.144ZM104.137 109.225L104.989 109.748L104.992 109.743L104.137 109.225ZM109.41 104.479L109.843 105.38L109.848 105.378L109.41 104.479ZM119.254 101.578L119.069 100.595L119.066 100.596L119.254 101.578ZM131.251 98.5459L131.639 99.4675L132.251 99.2099V98.5459H131.251ZM129.493 92.2617L128.835 93.0143L128.84 93.019L128.846 93.0237L129.493 92.2617ZM117.716 92.042L118.284 92.8649L118.291 92.8604L118.297 92.8557L117.716 92.042ZM131.251 106.588H132.251V105.2L130.935 105.639L131.251 106.588ZM117.013 110.631L116.458 109.799L116.446 109.807L116.434 109.815L117.013 110.631ZM127.823 119.156L128.41 119.966L128.421 119.958L127.823 119.156ZM130.768 115.069L129.811 114.777L129.807 114.79L130.768 115.069ZM114.728 96.5684L114.905 95.5842L103.699 93.5628L103.521 94.5469L103.344 95.531L114.55 97.5525L114.728 96.5684ZM103.521 94.5469L104.485 94.8158C105.698 90.4703 107.756 87.35 110.601 85.3447L110.025 84.5273L109.449 83.7099C106.142 86.0406 103.864 89.6001 102.558 94.2779L103.521 94.5469ZM110.025 84.5273L110.601 85.3447C113.434 83.3483 117.763 82.2754 123.736 82.2754V81.2754V80.2754C117.581 80.2754 112.769 81.3705 109.449 83.7099L110.025 84.5273ZM123.736 81.2754V82.2754C129.199 82.2754 133.114 82.9347 135.602 84.1512L136.041 83.2529L136.48 82.3546C133.577 80.9345 129.29 80.2754 123.736 80.2754V81.2754ZM136.041 83.2529L135.61 84.1551C138.171 85.3801 139.872 86.9068 140.829 88.6913L141.71 88.2188L142.591 87.7462C141.38 85.4877 139.302 83.7039 136.472 82.3508L136.041 83.2529ZM141.71 88.2188L140.837 88.7066C141.31 89.5526 141.703 90.8354 141.974 92.6201C142.242 94.3926 142.38 96.5986 142.38 99.249H143.38H144.38C144.38 96.5381 144.239 94.2251 143.951 92.3208C143.665 90.4288 143.223 88.8771 142.583 87.7309L141.71 88.2188ZM143.38 99.249L142.38 99.2399L142.248 113.654L143.248 113.663L144.248 113.672L144.38 99.2582L143.38 99.249ZM143.248 113.663H142.248C142.248 117.777 142.438 120.889 142.838 122.95L143.819 122.76L144.801 122.569C144.439 120.705 144.248 117.753 144.248 113.663H143.248ZM143.819 122.76L142.841 122.967C143.272 124.998 144.05 127.155 145.161 129.438L146.061 129L146.96 128.562C145.903 126.391 145.187 124.389 144.798 122.552L143.819 122.76ZM146.061 129V128H133.844V129V130H146.061V129ZM133.844 129L134.774 128.634C134.469 127.857 134.084 126.676 133.617 125.073L132.657 125.353L131.697 125.632C132.168 127.251 132.574 128.502 132.913 129.366L133.844 129ZM132.657 125.353L133.62 125.083C133.417 124.358 133.26 123.833 133.154 123.551L132.218 123.902L131.281 124.253C131.352 124.441 131.487 124.882 131.694 125.622L132.657 125.353ZM132.218 123.902L131.521 123.185C129.488 125.161 127.333 126.625 125.058 127.597L125.45 128.517L125.843 129.436C128.372 128.357 130.728 126.745 132.915 124.619L132.218 123.902ZM125.45 128.517L125.058 127.597C122.785 128.567 120.355 129.055 117.76 129.055V130.055V131.055C120.613 131.055 123.311 130.517 125.843 129.436L125.45 128.517ZM117.76 130.055V129.055C113.14 129.055 109.615 127.806 107.062 125.414L106.378 126.144L105.694 126.873C108.708 129.696 112.77 131.055 117.76 131.055V130.055ZM106.378 126.144L107.065 125.417C104.522 123.009 103.247 119.981 103.247 116.256H102.247H101.247C101.247 120.499 102.726 124.063 105.69 126.87L106.378 126.144ZM102.247 116.256H103.247C103.247 113.786 103.835 111.626 104.989 109.748L104.137 109.225L103.285 108.701C101.919 110.924 101.247 113.453 101.247 116.256H102.247ZM104.137 109.225L104.992 109.743C106.148 107.834 107.757 106.382 109.843 105.38L109.41 104.479L108.977 103.577C106.552 104.743 104.645 106.455 103.281 108.707L104.137 109.225ZM109.41 104.479L109.848 105.378C112.017 104.321 115.199 103.374 119.442 102.56L119.254 101.578L119.066 100.596C114.754 101.423 111.373 102.41 108.972 103.58L109.41 104.479ZM119.254 101.578L119.438 102.561C125.209 101.477 129.303 100.451 131.639 99.4675L131.251 98.5459L130.863 97.6243C128.745 98.5159 124.842 99.5111 119.069 100.595L119.254 101.578ZM131.251 98.5459H132.251V97.3154H131.251H130.251V98.5459H131.251ZM131.251 97.3154H132.251C132.251 94.8087 131.634 92.7694 130.141 91.4998L129.493 92.2617L128.846 93.0237C129.696 93.7462 130.251 95.076 130.251 97.3154H131.251ZM129.493 92.2617L130.152 91.5091C129.398 90.8498 128.379 90.4116 127.181 90.134C125.977 89.8549 124.53 89.7236 122.857 89.7236V90.7236V91.7236C124.437 91.7236 125.722 91.8488 126.73 92.0823C127.743 92.3174 128.416 92.6482 128.835 93.0143L129.493 92.2617ZM122.857 90.7236V89.7236C120.542 89.7236 118.596 90.1846 117.135 91.2283L117.716 92.042L118.297 92.8557C119.297 92.1416 120.778 91.7236 122.857 91.7236V90.7236ZM117.716 92.042L117.148 91.2191C115.672 92.2376 114.581 93.9699 113.784 96.2369L114.728 96.5684L115.671 96.8998C116.398 94.8308 117.298 93.5456 118.284 92.8649L117.716 92.042ZM131.251 106.588L130.935 105.639C129.409 106.148 126.949 106.768 123.527 107.5L123.736 108.478L123.945 109.455C127.379 108.722 129.929 108.083 131.567 107.537L131.251 106.588ZM123.736 108.478L123.527 107.5C121.795 107.87 120.343 108.24 119.18 108.613C118.032 108.98 117.103 109.369 116.458 109.799L117.013 110.631L117.567 111.463C117.978 111.189 118.696 110.868 119.79 110.518C120.867 110.172 122.25 109.818 123.945 109.455L123.736 108.478ZM117.013 110.631L116.434 109.815C114.596 111.118 113.596 112.856 113.596 114.981H114.596H115.596C115.596 113.592 116.206 112.429 117.591 111.447L117.013 110.631ZM114.596 114.981H113.596C113.596 116.992 114.358 118.74 115.83 120.179L116.529 119.464L117.228 118.749C116.122 117.668 115.596 116.428 115.596 114.981H114.596ZM116.529 119.464L115.83 120.179C117.327 121.641 119.228 122.354 121.451 122.354V121.354V120.354C119.69 120.354 118.31 119.806 117.228 118.749L116.529 119.464ZM121.451 121.354V122.354C123.914 122.354 126.24 121.539 128.41 119.966L127.823 119.156L127.236 118.346C125.364 119.703 123.442 120.354 121.451 120.354V121.354ZM127.823 119.156L128.421 119.958C130.069 118.73 131.192 117.192 131.728 115.349L130.768 115.069L129.807 114.79C129.406 116.169 128.566 117.356 127.226 118.354L127.823 119.156ZM130.768 115.069L131.724 115.362C132.096 114.144 132.251 111.994 132.251 109.049H131.251H130.251C130.251 112.022 130.084 113.885 129.811 114.777L130.768 115.069ZM131.251 109.049H132.251V106.588H131.251H130.251V109.049H131.251ZM196.29 96.1289L196.468 97.113L197.562 96.9155L197.25 95.8483L196.29 96.1289ZM184.117 98.3262L183.131 98.4925L183.299 99.49L184.295 99.3103L184.117 98.3262ZM181.305 92.833L180.654 93.5923L180.661 93.5987L181.305 92.833ZM168.297 94.1953L167.54 93.542L167.539 93.5428L168.297 94.1953ZM168.341 116.563L167.563 117.192L167.568 117.198L168.341 116.563ZM181.612 118.014L182.274 118.764L182.282 118.756L181.612 118.014ZM184.776 111.114L184.944 110.128L183.976 109.964L183.794 110.928L184.776 111.114ZM196.905 113.18L197.881 113.4L198.114 112.371L197.073 112.194L196.905 113.18ZM158.937 123.595L158.207 124.279L158.21 124.282L158.937 123.595ZM158.98 87.7354L159.705 88.4249L159.707 88.4224L158.98 87.7354ZM189.039 84.9668L188.446 85.7719L188.454 85.7777L189.039 84.9668ZM196.29 96.1289L196.112 95.1448L183.94 97.3421L184.117 98.3262L184.295 99.3103L196.468 97.113L196.29 96.1289ZM184.117 98.3262L185.103 98.1598C184.665 95.5631 183.642 93.4902 181.948 92.0673L181.305 92.833L180.661 93.5987C181.897 94.6367 182.749 96.2259 183.131 98.4925L184.117 98.3262ZM181.305 92.833L181.955 92.0737C180.301 90.6552 178.177 89.9873 175.68 89.9873V90.9873V91.9873C177.811 91.9873 179.438 92.5499 180.654 93.5923L181.305 92.833ZM175.68 90.9873V89.9873C172.342 89.9873 169.594 91.162 167.54 93.542L168.297 94.1953L169.054 94.8487C170.691 92.9513 172.865 91.9873 175.68 91.9873V90.9873ZM168.297 94.1953L167.539 93.5428C165.483 95.9303 164.572 99.7796 164.572 104.83H165.572H166.572C166.572 99.9196 167.478 96.679 169.055 94.8478L168.297 94.1953ZM165.572 104.83H164.572C164.572 110.42 165.492 114.628 167.563 117.192L168.341 116.563L169.119 115.935C167.498 113.928 166.572 110.314 166.572 104.83H165.572ZM168.341 116.563L167.568 117.198C169.645 119.73 172.442 120.991 175.855 120.991V119.991V118.991C172.999 118.991 170.786 117.967 169.114 115.929L168.341 116.563ZM175.855 119.991V120.991C178.397 120.991 180.566 120.271 182.274 118.764L181.612 118.014L180.951 117.264C179.671 118.393 178.001 118.991 175.855 118.991V119.991ZM181.612 118.014L182.282 118.756C184.014 117.194 185.127 114.64 185.759 111.3L184.776 111.114L183.794 110.928C183.195 114.093 182.199 116.138 180.943 117.271L181.612 118.014ZM184.776 111.114L184.608 112.1L196.737 114.165L196.905 113.18L197.073 112.194L184.944 110.128L184.776 111.114ZM196.905 113.18L195.93 112.959C194.708 118.36 192.387 122.342 189.032 125.009L189.654 125.792L190.277 126.575C194.07 123.559 196.583 119.132 197.881 113.4L196.905 113.18ZM189.654 125.792L189.032 125.009C185.684 127.671 181.136 129.055 175.284 129.055V130.055V131.055C181.444 131.055 186.477 129.596 190.277 126.575L189.654 125.792ZM175.284 130.055V129.055C168.687 129.055 163.517 126.984 159.663 122.908L158.937 123.595L158.21 124.282C162.5 128.819 168.229 131.055 175.284 131.055V130.055ZM158.937 123.595L159.666 122.91C155.843 118.838 153.872 113.148 153.872 105.709H152.872H151.872C151.872 113.504 153.944 119.738 158.207 124.279L158.937 123.595ZM152.872 105.709H153.872C153.872 98.1798 155.858 92.465 159.705 88.4249L158.98 87.7354L158.256 87.0458C153.958 91.5604 151.872 97.828 151.872 105.709H152.872ZM158.98 87.7354L159.707 88.4224C163.558 84.35 168.784 82.2754 175.504 82.2754V81.2754V80.2754C168.337 80.2754 162.548 82.5075 158.254 87.0483L158.98 87.7354ZM175.504 81.2754V82.2754C181.052 82.2754 185.331 83.4769 188.446 85.7719L189.039 84.9668L189.632 84.1617C186.067 81.5348 181.323 80.2754 175.504 80.2754V81.2754ZM189.039 84.9668L188.454 85.7777C191.601 88.0488 193.912 91.5576 195.33 96.4096L196.29 96.1289L197.25 95.8483C195.739 90.6807 193.216 86.748 189.624 84.1559L189.039 84.9668ZM205.255 129H204.255V130H205.255V129ZM205.255 64.5762V63.5762H204.255V64.5762H205.255ZM217.604 64.5762H218.604V63.5762H217.604V64.5762ZM217.604 98.7656H216.604V101.416L218.354 99.4261L217.604 98.7656ZM232.062 82.3301V81.3301H231.609L231.311 81.6696L232.062 82.3301ZM247.267 82.3301L247.997 83.0133L249.572 81.3301H247.267V82.3301ZM231.314 99.3809L230.584 98.6977L230.078 99.2389L230.448 99.8807L231.314 99.3809ZM248.409 129V130H250.141L249.275 128.5L248.409 129ZM235.094 129L234.221 129.488L234.507 130H235.094V129ZM223.36 108.038L224.233 107.55L223.572 106.369L222.638 107.347L223.36 108.038ZM217.604 114.059L216.881 113.367L216.604 113.657V114.059H217.604ZM217.604 129V130H218.604V129H217.604ZM205.255 129H206.255V64.5762H205.255H204.255V129H205.255ZM205.255 64.5762V65.5762H217.604V64.5762V63.5762H205.255V64.5762ZM217.604 64.5762H216.604V98.7656H217.604H218.604V64.5762H217.604ZM217.604 98.7656L218.354 99.4261L232.812 82.9906L232.062 82.3301L231.311 81.6696L216.853 98.1051L217.604 98.7656ZM232.062 82.3301V83.3301H247.267V82.3301V81.3301H232.062V82.3301ZM247.267 82.3301L246.536 81.6469L230.584 98.6977L231.314 99.3809L232.045 100.064L247.997 83.0133L247.267 82.3301ZM231.314 99.3809L230.448 99.8807L247.543 129.5L248.409 129L249.275 128.5L232.181 98.881L231.314 99.3809ZM248.409 129V128H235.094V129V130H248.409V129ZM235.094 129L235.966 128.512L224.233 107.55L223.36 108.038L222.488 108.527L234.221 129.488L235.094 129ZM223.36 108.038L222.638 107.347L216.881 113.367L217.604 114.059L218.326 114.75L224.083 108.729L223.36 108.038ZM217.604 114.059H216.604V129H217.604H218.604V114.059H217.604ZM217.604 129V128H205.255V129V130H217.604V129ZM249.332 129L248.495 128.452L247.482 130H249.332V129ZM271.349 95.3818L272.185 95.9297L272.542 95.3849L272.188 94.8382L271.349 95.3818ZM251.397 64.5762V63.5762H249.558L250.558 65.1198L251.397 64.5762ZM266.603 64.5762L267.451 64.0467L267.157 63.5762H266.603V64.5762ZM279.522 85.2744L278.674 85.8039L279.531 87.177L280.376 85.7961L279.522 85.2744ZM292.179 64.5762V63.5762H291.618L291.326 64.0545L292.179 64.5762ZM307.252 64.5762L308.094 65.1155L309.08 63.5762H307.252V64.5762ZM287.213 95.8652L286.371 95.3259L286.019 95.8753L286.38 96.4187L287.213 95.8652ZM309.229 129V130H311.095L310.062 128.447L309.229 129ZM293.541 129L292.699 129.54L292.994 130H293.541V129ZM279.259 106.72L280.101 106.18L279.26 104.869L278.418 106.179L279.259 106.72ZM264.933 129V130H265.479L265.774 129.541L264.933 129ZM249.332 129L250.169 129.548L272.185 95.9297L271.349 95.3818L270.512 94.834L248.495 128.452L249.332 129ZM271.349 95.3818L272.188 94.8382L252.237 64.0326L251.397 64.5762L250.558 65.1198L270.509 95.9254L271.349 95.3818ZM251.397 64.5762V65.5762H266.603V64.5762V63.5762H251.397V64.5762ZM266.603 64.5762L265.754 65.1057L278.674 85.8039L279.522 85.2744L280.371 84.7449L267.451 64.0467L266.603 64.5762ZM279.522 85.2744L280.376 85.7961L293.032 65.0978L292.179 64.5762L291.326 64.0545L278.669 84.7527L279.522 85.2744ZM292.179 64.5762V65.5762H307.252V64.5762V63.5762H292.179V64.5762ZM307.252 64.5762L306.41 64.0368L286.371 95.3259L287.213 95.8652L288.055 96.4046L308.094 65.1155L307.252 64.5762ZM287.213 95.8652L286.38 96.4187L308.397 129.553L309.229 129L310.062 128.447L288.046 95.3118L287.213 95.8652ZM309.229 129V128H293.541V129V130H309.229V129ZM293.541 129L294.383 128.46L280.101 106.18L279.259 106.72L278.417 107.259L292.699 129.54L293.541 129ZM279.259 106.72L278.418 106.179L264.091 128.459L264.933 129L265.774 129.541L280.1 107.261L279.259 106.72ZM264.933 129V128H249.332V129V130H264.933V129ZM342.848 114.146L343.013 113.16L342.133 113.013L341.887 113.87L342.848 114.146ZM355.152 116.212L356.096 116.543L356.489 115.422L355.318 115.226L355.152 116.212ZM347.638 126.539L348.205 127.362L348.207 127.361L347.638 126.539ZM316.832 122.101L316.022 122.687L316.026 122.693L316.832 122.101ZM318.282 87.8672L319.016 88.5467L319.018 88.5442L318.282 87.8672ZM350.055 88.1748L349.301 88.8323L349.303 88.8347L350.055 88.1748ZM355.812 109.225V110.225H356.793L356.811 109.243L355.812 109.225ZM324.874 109.225V108.225H323.85L323.874 109.249L324.874 109.225ZM327.862 117.794L327.129 118.474L327.134 118.48L327.862 117.794ZM343.551 101.666V102.666H344.576L344.55 101.641L343.551 101.666ZM340.782 93.5361L340.053 94.2201L340.058 94.2258L340.782 93.5361ZM325.094 101.666L324.094 101.675L324.102 102.666H325.094V101.666ZM342.848 114.146L342.682 115.133L354.987 117.198L355.152 116.212L355.318 115.226L343.013 113.16L342.848 114.146ZM355.152 116.212L354.209 115.881C352.686 120.224 350.298 123.481 347.068 125.717L347.638 126.539L348.207 127.361C351.833 124.851 354.455 121.223 356.096 116.543L355.152 116.212ZM347.638 126.539L347.07 125.716C343.875 127.919 339.823 129.055 334.85 129.055V130.055V131.055C340.13 131.055 344.604 129.846 348.205 127.362L347.638 126.539ZM334.85 130.055V129.055C326.97 129.055 321.302 126.495 317.638 121.508L316.832 122.101L316.026 122.693C320.155 128.312 326.499 131.055 334.85 131.055V130.055ZM316.832 122.101L317.642 121.514C314.716 117.473 313.218 112.331 313.218 106.017H312.218H311.218C311.218 112.652 312.796 118.232 316.022 122.687L316.832 122.101ZM312.218 106.017H313.218C313.218 98.4563 315.191 92.6769 319.016 88.5467L318.282 87.8672L317.549 87.1877C313.288 91.7879 311.218 98.1081 311.218 106.017H312.218ZM318.282 87.8672L319.018 88.5442C322.864 84.3636 327.706 82.2754 333.619 82.2754V81.2754V80.2754C327.169 80.2754 321.786 82.5817 317.546 87.1901L318.282 87.8672ZM333.619 81.2754V82.2754C340.318 82.2754 345.505 84.4815 349.301 88.8323L350.055 88.1748L350.808 87.5173C346.577 82.6689 340.807 80.2754 333.619 80.2754V81.2754ZM350.055 88.1748L349.303 88.8347C353.082 93.1373 354.985 99.8593 354.812 109.206L355.812 109.225L356.811 109.243C356.989 99.6642 355.055 92.353 350.806 87.5149L350.055 88.1748ZM355.812 109.225V108.225H324.874V109.225V110.225H355.812V109.225ZM324.874 109.225L323.874 109.249C323.966 113.078 325.013 116.195 327.13 118.474L327.862 117.794L328.595 117.113C326.903 115.291 325.958 112.696 325.874 109.201L324.874 109.225ZM327.862 117.794L327.134 118.48C329.233 120.707 331.871 121.826 334.981 121.826V120.826V119.826C332.408 119.826 330.301 118.924 328.59 117.108L327.862 117.794ZM334.981 120.826V121.826C337.107 121.826 338.963 121.242 340.484 120.025L339.859 119.244L339.235 118.463C338.119 119.356 336.723 119.826 334.981 119.826V120.826ZM339.859 119.244L340.484 120.025C342.021 118.795 343.102 116.881 343.809 114.423L342.848 114.146L341.887 113.87C341.246 116.1 340.334 117.584 339.235 118.463L339.859 119.244ZM343.551 101.666L344.55 101.641C344.459 97.9189 343.494 94.9332 341.506 92.8465L340.782 93.5361L340.058 94.2258C341.586 95.8305 342.467 98.2647 342.551 101.691L343.551 101.666ZM340.782 93.5361L341.512 92.8522C339.569 90.7801 337.168 89.7236 334.366 89.7236V90.7236V91.7236C336.603 91.7236 338.48 92.5421 340.053 94.2201L340.782 93.5361ZM334.366 90.7236V89.7236C331.394 89.7236 328.894 90.8207 326.942 93.0009L327.687 93.668L328.431 94.3351C329.995 92.5895 331.948 91.7236 334.366 91.7236V90.7236ZM327.687 93.668L326.942 93.0009C324.975 95.1967 324.063 98.1282 324.094 101.675L325.094 101.666L326.094 101.657C326.066 98.4656 326.882 96.065 328.431 94.3351L327.687 93.668ZM325.094 101.666V102.666H343.551V101.666V100.666H325.094V101.666ZM365.919 129H364.919V130H365.919V129ZM365.919 64.5762V63.5762H364.919V64.5762H365.919ZM378.268 64.5762H379.268V63.5762H378.268V64.5762ZM378.268 129V130H379.268V129H378.268ZM365.919 129H366.919V64.5762H365.919H364.919V129H365.919ZM365.919 64.5762V65.5762H378.268V64.5762V63.5762H365.919V64.5762ZM378.268 64.5762H377.268V129H378.268H379.268V64.5762H378.268ZM378.268 129V128H365.919V129V130H378.268V129ZM417.994 114.146L418.16 113.16L417.28 113.013L417.033 113.87L417.994 114.146ZM430.299 116.212L431.242 116.543L431.635 115.422L430.464 115.226L430.299 116.212ZM422.784 126.539L423.352 127.362L423.353 127.361L422.784 126.539ZM391.979 122.101L391.169 122.687L391.173 122.693L391.979 122.101ZM393.429 87.8672L394.162 88.5467L394.165 88.5442L393.429 87.8672ZM425.201 88.1748L424.448 88.8323L424.45 88.8347L425.201 88.1748ZM430.958 109.225V110.225H431.94L431.958 109.243L430.958 109.225ZM400.021 109.225V108.225H398.996L399.021 109.249L400.021 109.225ZM403.009 117.794L402.276 118.474L402.281 118.48L403.009 117.794ZM418.697 101.666V102.666H419.722L419.697 101.641L418.697 101.666ZM415.929 93.5361L415.199 94.2201L415.205 94.2258L415.929 93.5361ZM400.24 101.666L399.24 101.675L399.249 102.666H400.24V101.666ZM417.994 114.146L417.829 115.133L430.133 117.198L430.299 116.212L430.464 115.226L418.16 113.16L417.994 114.146ZM430.299 116.212L429.355 115.881C427.832 120.224 425.444 123.481 422.215 125.717L422.784 126.539L423.353 127.361C426.979 124.851 429.601 121.223 431.242 116.543L430.299 116.212ZM422.784 126.539L422.216 125.716C419.021 127.919 414.97 129.055 409.996 129.055V130.055V131.055C415.276 131.055 419.75 129.846 423.352 127.362L422.784 126.539ZM409.996 130.055V129.055C402.116 129.055 396.448 126.495 392.784 121.508L391.979 122.101L391.173 122.693C395.302 128.312 401.646 131.055 409.996 131.055V130.055ZM391.979 122.101L392.788 121.514C389.862 117.473 388.364 112.331 388.364 106.017H387.364H386.364C386.364 112.652 387.942 118.232 391.169 122.687L391.979 122.101ZM387.364 106.017H388.364C388.364 98.4563 390.337 92.6769 394.162 88.5467L393.429 87.8672L392.695 87.1877C388.434 91.7879 386.364 98.1081 386.364 106.017H387.364ZM393.429 87.8672L394.165 88.5442C398.011 84.3636 402.853 82.2754 408.766 82.2754V81.2754V80.2754C402.315 80.2754 396.933 82.5817 392.693 87.1901L393.429 87.8672ZM408.766 81.2754V82.2754C415.464 82.2754 420.651 84.4815 424.448 88.8323L425.201 88.1748L425.955 87.5173C421.724 82.6689 415.954 80.2754 408.766 80.2754V81.2754ZM425.201 88.1748L424.45 88.8347C428.228 93.1373 430.132 99.8593 429.958 109.206L430.958 109.225L431.958 109.243C432.136 99.6642 430.201 92.353 425.953 87.5149L425.201 88.1748ZM430.958 109.225V108.225H400.021V109.225V110.225H430.958V109.225ZM400.021 109.225L399.021 109.249C399.113 113.078 400.16 116.195 402.276 118.474L403.009 117.794L403.742 117.113C402.049 115.291 401.104 112.696 401.02 109.201L400.021 109.225ZM403.009 117.794L402.281 118.48C404.379 120.707 407.018 121.826 410.128 121.826V120.826V119.826C407.554 119.826 405.447 118.924 403.737 117.108L403.009 117.794ZM410.128 120.826V121.826C412.254 121.826 414.11 121.242 415.631 120.025L415.006 119.244L414.381 118.463C413.265 119.356 411.869 119.826 410.128 119.826V120.826ZM415.006 119.244L415.631 120.025C417.168 118.795 418.249 116.881 418.955 114.423L417.994 114.146L417.033 113.87C416.392 116.1 415.48 117.584 414.381 118.463L415.006 119.244ZM418.697 101.666L419.697 101.641C419.605 97.9189 418.64 94.9332 416.653 92.8465L415.929 93.5361L415.205 94.2258C416.733 95.8305 417.613 98.2647 417.698 101.691L418.697 101.666ZM415.929 93.5361L416.658 92.8522C414.716 90.7801 412.315 89.7236 409.513 89.7236V90.7236V91.7236C411.75 91.7236 413.626 92.5421 415.199 94.2201L415.929 93.5361ZM409.513 90.7236V89.7236C406.54 89.7236 404.04 90.8207 402.088 93.0009L402.833 93.668L403.578 94.3351C405.141 92.5895 407.094 91.7236 409.513 91.7236V90.7236ZM402.833 93.668L402.088 93.0009C400.122 95.1967 399.209 98.1282 399.24 101.675L400.24 101.666L401.24 101.657C401.212 98.4656 402.029 96.065 403.578 94.3351L402.833 93.668ZM400.24 101.666V102.666H418.697V101.666V100.666H400.24V101.666ZM452.887 129V130H453.887V129H452.887ZM440.538 129H439.538V130H440.538V129ZM440.538 82.3301V81.3301H439.538V82.3301H440.538ZM452.008 82.3301H453.008V81.3301H452.008V82.3301ZM452.008 88.9658H451.008V92.4471L452.855 89.4965L452.008 88.9658ZM457.281 82.7695L456.748 81.9233L456.741 81.9278L457.281 82.7695ZM470.772 83.6045L471.715 83.9391L471.99 83.1654L471.284 82.7453L470.772 83.6045ZM466.949 94.3711L466.405 95.2103L467.468 95.8987L467.892 94.7057L466.949 94.3711ZM456.754 93.7998L457.369 94.5881L457.375 94.5835L457.381 94.5788L456.754 93.7998ZM453.897 98.9414L452.935 98.6697L452.932 98.6802L453.897 98.9414ZM452.887 129V128H440.538V129V130H452.887V129ZM440.538 129H441.538V82.3301H440.538H439.538V129H440.538ZM440.538 82.3301V83.3301H452.008V82.3301V81.3301H440.538V82.3301ZM452.008 82.3301H451.008V88.9658H452.008H453.008V82.3301H452.008ZM452.008 88.9658L452.855 89.4965C454.803 86.3858 456.464 84.4817 457.821 83.6112L457.281 82.7695L456.741 81.9278C454.993 83.0496 453.138 85.2763 451.16 88.4351L452.008 88.9658ZM457.281 82.7695L457.814 83.6158C459.226 82.7268 460.826 82.2754 462.643 82.2754V81.2754V80.2754C460.475 80.2754 458.501 80.8201 456.748 81.9233L457.281 82.7695ZM462.643 81.2754V82.2754C465.261 82.2754 467.795 82.9956 470.261 84.4637L470.772 83.6045L471.284 82.7453C468.535 81.1079 465.649 80.2754 462.643 80.2754V81.2754ZM470.772 83.6045L469.83 83.2699L466.007 94.0365L466.949 94.3711L467.892 94.7057L471.715 83.9391L470.772 83.6045ZM466.949 94.3711L467.493 93.5318C465.311 92.1184 463.19 91.3496 461.148 91.3496V92.3496V93.3496C462.681 93.3496 464.427 93.9285 466.405 95.2103L466.949 94.3711ZM461.148 92.3496V91.3496C459.221 91.3496 457.527 91.8937 456.127 93.0208L456.754 93.7998L457.381 94.5788C458.383 93.7723 459.619 93.3496 461.148 93.3496V92.3496ZM456.754 93.7998L456.139 93.0115C454.688 94.1433 453.66 96.1034 452.935 98.6697L453.897 98.9414L454.86 99.2131C455.542 96.7989 456.417 95.3313 457.369 94.5881L456.754 93.7998ZM453.897 98.9414L452.932 98.6802C452.218 101.321 451.887 106.672 451.887 114.586H452.887H453.887C453.887 106.621 454.23 101.542 454.863 99.2026L453.897 98.9414ZM452.887 114.586H451.887V129H452.887H453.887V114.586H452.887ZM485.362 96.5684L485.185 97.5525L486.023 97.7037L486.306 96.8998L485.362 96.5684ZM474.156 94.5469L473.193 94.2779L472.898 95.336L473.979 95.531L474.156 94.5469ZM506.676 83.2529L506.236 84.1513L506.244 84.1551L506.676 83.2529ZM512.345 88.2188L511.463 88.6913L511.468 88.699L511.472 88.7066L512.345 88.2188ZM514.015 99.249L515.015 99.2582V99.249H514.015ZM513.883 113.663L512.883 113.654V113.663H513.883ZM514.454 122.76L513.472 122.95L513.474 122.959L513.476 122.967L514.454 122.76ZM516.695 129V130H518.294L517.594 128.562L516.695 129ZM504.479 129L503.548 129.366L503.797 130H504.479V129ZM503.292 125.353L502.329 125.622L502.332 125.632L503.292 125.353ZM502.853 123.902L503.789 123.551L503.252 122.119L502.155 123.185L502.853 123.902ZM496.085 128.517L495.692 127.597L496.085 128.517ZM477.013 126.144L476.325 126.87L476.329 126.873L477.013 126.144ZM474.771 109.225L475.624 109.748L475.627 109.743L474.771 109.225ZM480.045 104.479L480.478 105.38L480.483 105.378L480.045 104.479ZM489.889 101.578L489.704 100.595L489.7 100.596L489.889 101.578ZM501.886 98.5459L502.274 99.4675L502.886 99.2099V98.5459H501.886ZM500.128 92.2617L499.469 93.0143L499.475 93.019L499.48 93.0237L500.128 92.2617ZM488.351 92.042L488.919 92.8649L488.925 92.8604L488.932 92.8557L488.351 92.042ZM501.886 106.588H502.886V105.2L501.57 105.639L501.886 106.588ZM487.647 110.631L487.093 109.799L487.081 109.807L487.069 109.815L487.647 110.631ZM498.458 119.156L499.045 119.966L499.055 119.958L498.458 119.156ZM501.402 115.069L500.446 114.777L500.442 114.79L501.402 115.069ZM485.362 96.5684L485.54 95.5842L474.334 93.5628L474.156 94.5469L473.979 95.531L485.185 97.5525L485.362 96.5684ZM474.156 94.5469L475.119 94.8158C476.333 90.4703 478.391 87.35 481.236 85.3447L480.66 84.5273L480.084 83.7099C476.777 86.0406 474.499 89.6001 473.193 94.2779L474.156 94.5469ZM480.66 84.5273L481.236 85.3447C484.069 83.3483 488.397 82.2754 494.371 82.2754V81.2754V80.2754C488.216 80.2754 483.404 81.3705 480.084 83.7099L480.66 84.5273ZM494.371 81.2754V82.2754C499.833 82.2754 503.749 82.9347 506.236 84.1512L506.676 83.2529L507.115 82.3546C504.212 80.9345 499.924 80.2754 494.371 80.2754V81.2754ZM506.676 83.2529L506.244 84.1551C508.806 85.3801 510.507 86.9068 511.463 88.6913L512.345 88.2188L513.226 87.7462C512.015 85.4877 509.936 83.7039 507.107 82.3508L506.676 83.2529ZM512.345 88.2188L511.472 88.7066C511.945 89.5526 512.338 90.8354 512.608 92.6201C512.877 94.3926 513.015 96.5986 513.015 99.249H514.015H515.015C515.015 96.5381 514.874 94.2251 514.586 92.3208C514.299 90.4288 513.858 88.8771 513.218 87.7309L512.345 88.2188ZM514.015 99.249L513.015 99.2399L512.883 113.654L513.883 113.663L514.883 113.672L515.015 99.2582L514.015 99.249ZM513.883 113.663H512.883C512.883 117.777 513.072 120.889 513.472 122.95L514.454 122.76L515.436 122.569C515.074 120.705 514.883 117.753 514.883 113.663H513.883ZM514.454 122.76L513.476 122.967C513.907 124.998 514.685 127.155 515.796 129.438L516.695 129L517.594 128.562C516.538 126.391 515.822 124.389 515.432 122.552L514.454 122.76ZM516.695 129V128H504.479V129V130H516.695V129ZM504.479 129L505.409 128.634C505.104 127.857 504.719 126.676 504.252 125.073L503.292 125.353L502.332 125.632C502.803 127.251 503.209 128.502 503.548 129.366L504.479 129ZM503.292 125.353L504.255 125.083C504.052 124.358 503.894 123.833 503.789 123.551L502.853 123.902L501.916 124.253C501.986 124.441 502.122 124.882 502.329 125.622L503.292 125.353ZM502.853 123.902L502.155 123.185C500.123 125.161 497.968 126.625 495.692 127.597L496.085 128.517L496.478 129.436C499.006 128.357 501.363 126.745 503.55 124.619L502.853 123.902ZM496.085 128.517L495.692 127.597C493.419 128.567 490.99 129.055 488.395 129.055V130.055V131.055C491.248 131.055 493.946 130.517 496.478 129.436L496.085 128.517ZM488.395 130.055V129.055C483.775 129.055 480.25 127.806 477.696 125.414L477.013 126.144L476.329 126.873C479.342 129.696 483.405 131.055 488.395 131.055V130.055ZM477.013 126.144L477.7 125.417C475.157 123.009 473.882 119.981 473.882 116.256H472.882H471.882C471.882 120.499 473.361 124.063 476.325 126.87L477.013 126.144ZM472.882 116.256H473.882C473.882 113.786 474.47 111.626 475.624 109.748L474.771 109.225L473.919 108.701C472.554 110.924 471.882 113.453 471.882 116.256H472.882ZM474.771 109.225L475.627 109.743C476.783 107.834 478.392 106.382 480.478 105.38L480.045 104.479L479.612 103.577C477.186 104.743 475.28 106.455 473.916 108.707L474.771 109.225ZM480.045 104.479L480.483 105.378C482.652 104.321 485.834 103.374 490.077 102.56L489.889 101.578L489.7 100.596C485.389 101.423 482.008 102.41 479.607 103.58L480.045 104.479ZM489.889 101.578L490.073 102.561C495.844 101.477 499.938 100.451 502.274 99.4675L501.886 98.5459L501.498 97.6243C499.38 98.5159 495.477 99.5111 489.704 100.595L489.889 101.578ZM501.886 98.5459H502.886V97.3154H501.886H500.886V98.5459H501.886ZM501.886 97.3154H502.886C502.886 94.8087 502.269 92.7694 500.776 91.4998L500.128 92.2617L499.48 93.0237C500.33 93.7462 500.886 95.076 500.886 97.3154H501.886ZM500.128 92.2617L500.786 91.5091C500.033 90.8498 499.014 90.4116 497.816 90.134C496.612 89.8549 495.164 89.7236 493.492 89.7236V90.7236V91.7236C495.072 91.7236 496.357 91.8488 497.364 92.0823C498.378 92.3174 499.051 92.6482 499.469 93.0143L500.128 92.2617ZM493.492 90.7236V89.7236C491.177 89.7236 489.231 90.1846 487.769 91.2283L488.351 92.042L488.932 92.8557C489.932 92.1416 491.413 91.7236 493.492 91.7236V90.7236ZM488.351 92.042L487.782 91.2191C486.307 92.2376 485.215 93.9699 484.419 96.2369L485.362 96.5684L486.306 96.8998C487.033 94.8308 487.933 93.5456 488.919 92.8649L488.351 92.042ZM501.886 106.588L501.57 105.639C500.043 106.148 497.584 106.768 494.162 107.5L494.371 108.478L494.58 109.455C498.014 108.722 500.564 108.083 502.202 107.537L501.886 106.588ZM494.371 108.478L494.162 107.5C492.43 107.87 490.978 108.24 489.814 108.613C488.667 108.98 487.737 109.369 487.093 109.799L487.647 110.631L488.202 111.463C488.612 111.189 489.33 110.868 490.424 110.518C491.502 110.172 492.885 109.818 494.58 109.455L494.371 108.478ZM487.647 110.631L487.069 109.815C485.231 111.118 484.23 112.856 484.23 114.981H485.23H486.23C486.23 113.592 486.841 112.429 488.226 111.447L487.647 110.631ZM485.23 114.981H484.23C484.23 116.992 484.993 118.74 486.465 120.179L487.164 119.464L487.863 118.749C486.757 117.668 486.23 116.428 486.23 114.981H485.23ZM487.164 119.464L486.465 120.179C487.961 121.641 489.863 122.354 492.086 122.354V121.354V120.354C490.325 120.354 488.945 119.806 487.863 118.749L487.164 119.464ZM492.086 121.354V122.354C494.548 122.354 496.874 121.539 499.045 119.966L498.458 119.156L497.871 118.346C495.999 119.703 494.077 120.354 492.086 120.354V121.354ZM498.458 119.156L499.055 119.958C500.704 118.73 501.826 117.192 502.363 115.349L501.402 115.069L500.442 114.79C500.041 116.169 499.2 117.356 497.861 118.354L498.458 119.156ZM501.402 115.069L502.359 115.362C502.731 114.144 502.886 111.994 502.886 109.049H501.886H500.886C500.886 112.022 500.719 113.885 500.446 114.777L501.402 115.069ZM501.886 109.049H502.886V106.588H501.886H500.886V109.049H501.886ZM547.633 82.3301H548.633V81.3301H547.633V82.3301ZM547.633 92.1738V93.1738H548.633V92.1738H547.633ZM539.195 92.1738V91.1738H538.195V92.1738H539.195ZM539.415 117.662L538.44 117.884L538.446 117.91L538.454 117.937L539.415 117.662ZM540.514 119.2L539.92 120.005L539.93 120.012L539.94 120.019L540.514 119.2ZM547.589 118.629L548.583 118.519L548.443 117.253L547.246 117.689L547.589 118.629ZM548.644 128.209L549.037 129.128L549.719 128.836L549.638 128.1L548.644 128.209ZM532.867 128.956L532.475 129.876L532.488 129.881L532.867 128.956ZM528.912 126.056L528.086 126.62L528.094 126.631L528.103 126.643L528.912 126.056ZM527.198 121.222L528.186 121.064L528.184 121.053L528.182 121.041L527.198 121.222ZM526.803 92.1738H527.803V91.1738H526.803V92.1738ZM521.134 92.1738H520.134V93.1738H521.134V92.1738ZM521.134 82.3301V81.3301H520.134V82.3301H521.134ZM526.803 82.3301V83.3301H527.803V82.3301H526.803ZM526.803 73.0576L526.3 72.1932L525.803 72.4824V73.0576H526.803ZM539.195 65.8506H540.195V64.1122L538.693 64.9861L539.195 65.8506ZM539.195 82.3301H538.195V83.3301H539.195V82.3301ZM547.633 82.3301H546.633V92.1738H547.633H548.633V82.3301H547.633ZM547.633 92.1738V91.1738H539.195V92.1738V93.1738H547.633V92.1738ZM539.195 92.1738H538.195V110.982H539.195H540.195V92.1738H539.195ZM539.195 110.982H538.195C538.195 112.891 538.214 114.412 538.251 115.542C538.287 116.63 538.341 117.45 538.44 117.884L539.415 117.662L540.39 117.44C540.342 117.23 540.287 116.614 540.25 115.476C540.214 114.379 540.195 112.882 540.195 110.982H539.195ZM539.415 117.662L538.454 117.937C538.695 118.782 539.201 119.475 539.92 120.005L540.514 119.2L541.107 118.395C540.713 118.105 540.487 117.772 540.377 117.387L539.415 117.662ZM540.514 119.2L539.94 120.019C540.718 120.564 541.629 120.815 542.623 120.815V119.815V118.815C541.977 118.815 541.481 118.657 541.087 118.381L540.514 119.2ZM542.623 119.815V120.815C543.95 120.815 545.742 120.367 547.932 119.568L547.589 118.629L547.246 117.689C545.099 118.473 543.582 118.815 542.623 118.815V119.815ZM547.589 118.629L546.595 118.738L547.65 128.318L548.644 128.209L549.638 128.1L548.583 118.519L547.589 118.629ZM548.644 128.209L548.25 127.29C545.522 128.459 542.407 129.055 538.888 129.055V130.055V131.055C542.634 131.055 546.023 130.42 549.037 129.128L548.644 128.209ZM538.888 130.055V129.055C536.772 129.055 534.896 128.707 533.246 128.031L532.867 128.956L532.488 129.881C534.412 130.67 536.551 131.055 538.888 131.055V130.055ZM532.867 128.956L533.259 128.036C531.584 127.322 530.434 126.452 529.722 125.469L528.912 126.056L528.103 126.643C529.089 128.003 530.576 129.067 532.475 129.876L532.867 128.956ZM528.912 126.056L529.738 125.492C529.028 124.452 528.494 122.995 528.186 121.064L527.198 121.222L526.211 121.379C526.547 123.491 527.156 125.257 528.086 126.62L528.912 126.056ZM527.198 121.222L528.182 121.041C527.937 119.71 527.803 116.901 527.803 112.521H526.803H525.803C525.803 116.87 525.932 119.862 526.215 121.402L527.198 121.222ZM526.803 112.521H527.803V92.1738H526.803H525.803V112.521H526.803ZM526.803 92.1738V91.1738H521.134V92.1738V93.1738H526.803V92.1738ZM521.134 92.1738H522.134V82.3301H521.134H520.134V92.1738H521.134ZM521.134 82.3301V83.3301H526.803V82.3301V81.3301H521.134V82.3301ZM526.803 82.3301H527.803V73.0576H526.803H525.803V82.3301H526.803ZM526.803 73.0576L527.305 73.9221L539.698 66.715L539.195 65.8506L538.693 64.9861L526.3 72.1932L526.803 73.0576ZM539.195 65.8506H538.195V82.3301H539.195H540.195V65.8506H539.195ZM539.195 82.3301V83.3301H547.633V82.3301V81.3301H539.195V82.3301ZM583.229 114.146L583.394 113.16L582.514 113.013L582.267 113.87L583.229 114.146ZM595.533 116.212L596.477 116.543L596.87 115.422L595.699 115.226L595.533 116.212ZM588.019 126.539L588.586 127.362L588.588 127.361L588.019 126.539ZM557.213 122.101L556.403 122.687L556.407 122.693L557.213 122.101ZM558.663 87.8672L559.397 88.5467L559.399 88.5442L558.663 87.8672ZM590.436 88.1748L589.682 88.8323L589.684 88.8347L590.436 88.1748ZM596.192 109.225V110.225H597.174L597.192 109.243L596.192 109.225ZM565.255 109.225V108.225H564.231L564.255 109.249L565.255 109.225ZM568.243 117.794L567.51 118.474L567.515 118.48L568.243 117.794ZM583.932 101.666V102.666H584.957L584.931 101.641L583.932 101.666ZM581.163 93.5361L580.434 94.2201L580.439 94.2258L581.163 93.5361ZM565.475 101.666L564.475 101.675L564.483 102.666H565.475V101.666ZM583.229 114.146L583.063 115.133L595.368 117.198L595.533 116.212L595.699 115.226L583.394 113.16L583.229 114.146ZM595.533 116.212L594.59 115.881C593.067 120.224 590.679 123.481 587.449 125.717L588.019 126.539L588.588 127.361C592.214 124.851 594.836 121.223 596.477 116.543L595.533 116.212ZM588.019 126.539L587.451 125.716C584.256 127.919 580.204 129.055 575.23 129.055V130.055V131.055C580.511 131.055 584.984 129.846 588.586 127.362L588.019 126.539ZM575.23 130.055V129.055C567.35 129.055 561.682 126.495 558.019 121.508L557.213 122.101L556.407 122.693C560.536 128.312 566.88 131.055 575.23 131.055V130.055ZM557.213 122.101L558.023 121.514C555.097 117.473 553.599 112.331 553.599 106.017H552.599H551.599C551.599 112.652 553.177 118.232 556.403 122.687L557.213 122.101ZM552.599 106.017H553.599C553.599 98.4563 555.571 92.6769 559.397 88.5467L558.663 87.8672L557.929 87.1877C553.669 91.7879 551.599 98.1081 551.599 106.017H552.599ZM558.663 87.8672L559.399 88.5442C563.245 84.3636 568.087 82.2754 574 82.2754V81.2754V80.2754C567.55 80.2754 562.167 82.5817 557.927 87.1901L558.663 87.8672ZM574 81.2754V82.2754C580.699 82.2754 585.886 84.4815 589.682 88.8323L590.436 88.1748L591.189 87.5173C586.958 82.6689 581.188 80.2754 574 80.2754V81.2754ZM590.436 88.1748L589.684 88.8347C593.463 93.1373 595.366 99.8593 595.193 109.206L596.192 109.225L597.192 109.243C597.37 99.6642 595.436 92.353 591.187 87.5149L590.436 88.1748ZM596.192 109.225V108.225H565.255V109.225V110.225H596.192V109.225ZM565.255 109.225L564.255 109.249C564.347 113.078 565.394 116.195 567.51 118.474L568.243 117.794L568.976 117.113C567.284 115.291 566.339 112.696 566.255 109.201L565.255 109.225ZM568.243 117.794L567.515 118.48C569.613 120.707 572.252 121.826 575.362 121.826V120.826V119.826C572.789 119.826 570.681 118.924 568.971 117.108L568.243 117.794ZM575.362 120.826V121.826C577.488 121.826 579.344 121.242 580.865 120.025L580.24 119.244L579.616 118.463C578.5 119.356 577.104 119.826 575.362 119.826V120.826ZM580.24 119.244L580.865 120.025C582.402 118.795 583.483 116.881 584.19 114.423L583.229 114.146L582.267 113.87C581.626 116.1 580.715 117.584 579.616 118.463L580.24 119.244ZM583.932 101.666L584.931 101.641C584.84 97.9189 583.875 94.9332 581.887 92.8465L581.163 93.5361L580.439 94.2258C581.967 95.8305 582.848 98.2647 582.932 101.691L583.932 101.666ZM581.163 93.5361L581.893 92.8522C579.95 90.7801 577.549 89.7236 574.747 89.7236V90.7236V91.7236C576.984 91.7236 578.86 92.5421 580.434 94.2201L581.163 93.5361ZM574.747 90.7236V89.7236C571.775 89.7236 569.275 90.8207 567.322 93.0009L568.067 93.668L568.812 94.3351C570.376 92.5895 572.329 91.7236 574.747 91.7236V90.7236ZM568.067 93.668L567.322 93.0009C565.356 95.1967 564.444 98.1282 564.475 101.675L565.475 101.666L566.475 101.657C566.447 98.4656 567.263 96.065 568.812 94.3351L568.067 93.668ZM565.475 101.666V102.666H583.932V101.666V100.666H565.475V101.666Z" fill="black" mask="url(#path-2-outside-1_7874_7)"/>
</g>
<defs>
<linearGradient id="paint0_linear_7874_7" x1="316.635" y1="19.686" x2="410.311" y2="279.607" gradientUnits="userSpaceOnUse">
<stop offset="0.182411" stop-color="#84FF00"/>
<stop offset="0.379273" stop-color="#3C9003"/>
<stop offset="0.875" stop-color="#1D5A08"/>
<stop offset="1" stop-color="#2F9917"/>
<stop offset="1" stop-color="#2A7607"/>
</linearGradient>
<clipPath id="clip0_7874_7">
<rect width="643" height="215" fill="white"/>
</clipPath>
</defs>
</svg>
